PathFileType	4	(X/Y/Z)	C:\Users\Basilio\Documents\Thesis Gigler\squatting_fais\c3dfiles\075\SJ_pre5\markers_experimental.trc
DataRate	CameraRate	NumFrames	NumMarkers	Units	OrigDataRate	OrigDataStartFrame	OrigNumFrames
200.000000	200.000000	4	61	mm	200.000000	918	1470
Frame#	Time	FHD			LBHD			RBHD			C7			T10			CLAV			LSHO			LUUPA			LMUPA			LDUPA			LLEP			LMEP			LRAD			LUL			LRFIN			RSHO			RUPA1			RMUPA			RDUPA			RLEP			RMEP			RRAD			RUL			RUFIN			LASI			RASI			USACR			LSACR			RSACR			LTHI1			LTHI2			LTHI3			LTHI4			LLFC			LMFC			LTIB1			LTIB2			LTIB3			LTIB4			LLMAL			LMMAL			LHEE			LMT1			LMT2			LMT5			RTHI			RTHI2			RTHI3			RTHI4			RLFC			RMFC			RTIB1			RTIB2			RTIB3			RTIB4			RLMAL			RMMAL			RHEE			RMT1			RMT2			RMT5			
		X1	Y1	Z1	X2	Y2	Z2	X3	Y3	Z3	X4	Y4	Z4	X5	Y5	Z5	X6	Y6	Z6	X7	Y7	Z7	X8	Y8	Z8	X9	Y9	Z9	X10	Y10	Z10	X11	Y11	Z11	X12	Y12	Z12	X13	Y13	Z13	X14	Y14	Z14	X15	Y15	Z15	X16	Y16	Z16	X17	Y17	Z17	X18	Y18	Z18	X19	Y19	Z19	X20	Y20	Z20	X21	Y21	Z21	X22	Y22	Z22	X23	Y23	Z23	X24	Y24	Z24	X25	Y25	Z25	X26	Y26	Z26	X27	Y27	Z27	X28	Y28	Z28	X29	Y29	Z29	X30	Y30	Z30	X31	Y31	Z31	X32	Y32	Z32	X33	Y33	Z33	X34	Y34	Z34	X35	Y35	Z35	X36	Y36	Z36	X37	Y37	Z37	X38	Y38	Z38	X39	Y39	Z39	X40	Y40	Z40	X41	Y41	Z41	X42	Y42	Z42	X43	Y43	Z43	X44	Y44	Z44	X45	Y45	Z45	X46	Y46	Z46	X47	Y47	Z47	X48	Y48	Z48	X49	Y49	Z49	X50	Y50	Z50	X51	Y51	Z51	X52	Y52	Z52	X53	Y53	Z53	X54	Y54	Z54	X55	Y55	Z55	X56	Y56	Z56	X57	Y57	Z57	X58	Y58	Z58	X59	Y59	Z59	X60	Y60	Z60	X61	Y61	Z61	

919	4.59	53.29265213012697	1175.398193359375	-890.5701904296877	-111.4263610839844	1088.044555664063	-968.695983886719	-68.30846405029298	1105.697998046875	-813.314880371094	-179.7790679931641	1024.17041015625	-914.346130371094	-410.5445861816407	812.2183227539065	-916.509460449219	-89.12807464599611	891.7803955078127	-910.8785400390627	-72.61599731445314	944.789489746094	-1060.45703125	-165.3383178710938	837.9927368164065	-1240.412963867188	-177.6460571289063	794.4588012695315	-1219.427612304688	-205.7679290771485	789.5511474609377	-1273.584594726563	-264.6959533691407	731.6679687500001	-1297.99169921875	-329.6170654296876	795.1084594726565	-1281.497802734375	-434.839569091797	641.1497192382814	-1137.425903320313	-404.630828857422	576.2292480468751	-1162.76123046875	-406.2415161132814	638.7946777343751	-1082.430053710938	-92.75192260742189	942.849060058594	-757.5036621093751	-198.8850860595704	864.7784423828127	-584.0998535156251	-211.2574157714844	815.9629516601565	-591.2176513671876	-243.4606170654297	828.8983154296877	-541.6291503906251	-293.8939208984376	781.921569824219	-513.3220214843751	-368.5336303710938	823.9526977539065	-529.3529052734376	-432.9519042968751	654.3692016601564	-702.2439575195314	-394.4333496093751	598.6105346679689	-663.5249633789064	-388.3144836425782	651.1723022460939	-756.6010742187501	-388.6605529785157	596.9008789062501	-1026.057983398438	-389.4897766113282	623.2369384765626	-790.089782714844	-498.5127563476564	729.6677856445314	-916.1970214843752	-524.1882934570314	708.3198242187501	-941.6159667968752	-523.8544311523439	711.1917114257814	-885.8428344726565	-371.3025817871094	516.5093994140626	-1135.9658203125	-288.4755249023438	508.8079528808595	-1148.626342773438	-268.1162109375001	546.2252807617189	-1122.486206054688	-255.9539794921876	460.577362060547	-1160.028442382813	-176.8043823242188	406.2498474121095	-1160.4638671875	-133.2661895751953	396.1158447265626	-1034.77587890625	-144.7117614746094	281.5017089843751	-1117.202026367188	-219.7805938720704	268.6031799316407	-1163.572021484375	-188.979721069336	248.3456726074219	-1141.179443359375	-229.109115600586	185.8219909667969	-1108.728271484375	-367.3537292480469	91.88585662841798	-1117.652587890625	-325.3739318847657	98.10615539550784	-1036.334716796875	-421.1181030273439	49.7642288208008	-1064.3564453125	-209.0470428466797	52.14998626708986	-1082.365478515625	-216.5607604980469	58.11911773681642	-1130.186157226563	-263.3480529785157	42.03557205200196	-1176.450073242188	-413.3379211425782	533.5835571289064	-695.0444335937501	-348.4439086914063	543.4306640625001	-692.2485961914064	-338.0209655761719	570.7404174804689	-711.6235961914064	-290.9560241699219	484.491668701172	-678.4849243164064	-176.8675231933594	406.1721496582032	-688.2947998046876	-140.141342163086	401.0602416992189	-808.7641601562502	-165.054183959961	267.2527465820313	-755.1508789062501	-250.9549713134766	222.7823638916016	-701.7379760742189	-220.8739013671876	205.1747589111329	-733.4014892578126	-247.6226806640626	170.0623168945313	-774.5805664062502	-366.5373840332032	90.51900482177736	-741.7908325195314	-323.7349243164063	104.0503234863282	-821.7227783203127	-419.1836853027345	51.38028717041017	-799.427429199219	-209.5975189208985	58.14423751831056	-766.4478149414064	-219.1017608642579	58.26373672485353	-725.5229492187501	-261.6764221191407	35.0862045288086	-679.3890380859376	
920	4.595	53.280574798584	1175.943481445313	-890.7263793945315	-111.4903564453125	1088.454833984375	-968.8178710937502	-68.19631195068361	1106.044067382813	-813.305603027344	-179.6776428222657	1024.670532226563	-914.415710449219	-410.8059082031251	813.160095214844	-916.4627075195315	-89.14257812500001	892.1644287109377	-910.9196777343752	-72.61289978027345	945.1826782226565	-1060.535034179688	-165.1776275634766	838.196716308594	-1240.485595703125	-177.7499542236328	794.809753417969	-1219.468872070313	-205.6580657958985	789.8181762695315	-1273.651245117188	-264.6388549804688	731.9132080078126	-1297.978271484375	-329.5082702636719	795.4119873046877	-1281.571044921875	-434.8469238281251	641.6864013671876	-1137.29736328125	-404.9189758300782	576.8380737304689	-1162.683349609375	-406.2056579589845	639.1855468750001	-1082.4345703125	-92.60213470458986	943.120788574219	-757.5656127929689	-198.7442779541016	864.959411621094	-584.1511840820314	-211.2342376708985	816.2297363281252	-591.3797607421876	-243.3618927001954	829.1218872070315	-541.6838989257814	-293.7398986816407	782.3941040039065	-513.3558959960939	-368.4640197753907	824.482604980469	-529.2832031250001	-433.1632385253907	655.1294555664064	-702.2136230468751	-394.7031860351564	599.1664428710939	-663.4965820312501	-388.4776611328126	651.9183959960939	-756.3476562500001	-389.2014770507814	597.3704833984376	-1026.045532226563	-389.6064453125001	623.9183959960939	-790.1315917968752	-498.666229248047	730.7061767578126	-916.203308105469	-524.3389892578126	709.0545654296876	-941.588317871094	-523.9819335937501	712.2205200195314	-885.880798339844	-371.3917236328126	517.0595092773439	-1135.857421875	-288.3975219726563	509.1121826171876	-1148.477905273438	-268.0911254882813	546.5342407226564	-1122.314575195313	-256.0048522949219	460.8619995117189	-1159.804931640625	-177.128646850586	406.4043579101564	-1160.169677734375	-133.538330078125	396.1883239746095	-1034.499145507813	-144.7940368652344	281.5186767578126	-1116.955688476563	-220.0730590820313	268.7435302734376	-1163.38720703125	-189.0623474121094	248.3542938232422	-1141.047973632813	-229.2413787841797	185.8099212646485	-1108.663696289063	-367.4367675781251	91.81524658203126	-1117.594360351563	-325.4017639160157	98.05339813232425	-1036.235717773438	-421.0917358398439	49.70651245117189	-1064.372924804688	-209.1467895507813	52.18776702880861	-1082.40625	-216.5559387207032	58.13463973999025	-1130.162353515625	-263.3151550292969	41.99803543090821	-1176.511962890625	-413.6065979003907	534.1176757812501	-695.2010498046876	-348.4891967773438	543.8873291015626	-692.4135131835939	-338.0759887695313	571.2107543945314	-711.6081542968751	-291.6479492187501	484.3115844726564	-678.8770141601564	-177.2722473144532	406.3857727050782	-688.6821899414064	-140.6604766845703	401.1936950683595	-809.0217285156252	-165.2543640136719	267.3950805664063	-755.3892211914064	-251.1945037841797	222.8167877197266	-701.8745117187501	-221.1017150878907	205.2052307128907	-733.5274658203126	-247.7991333007813	170.0267791748047	-774.6855468750002	-366.6190490722657	90.46360015869142	-741.7904052734376	-323.8269653320313	103.973991394043	-821.7654418945315	-419.1678161621095	51.25145721435548	-799.471374511719	-209.7077789306641	58.17859268188478	-766.4431152343751	-219.127182006836	58.36575317382814	-725.4888916015626	-261.6647033691407	35.08444595336915	-679.3760375976564	
921	4.600000000000001	53.36080551147462	1176.582397460938	-890.8215942382815	-111.4725418090821	1089.159301757813	-968.9153442382815	-67.78994750976564	1106.928466796875	-812.9590454101565	-179.5948486328125	1025.290405273438	-914.566345214844	-411.1588439941407	814.2114868164065	-916.5258789062502	-89.25844573974611	892.7199707031252	-911.031433105469	-72.27206420898439	945.5551757812502	-1060.366455078125	-164.9595336914063	838.4192504882815	-1240.576904296875	-177.5590515136719	795.2602539062502	-1219.446533203125	-205.398178100586	790.174499511719	-1273.628051757813	-264.5726928710938	732.2579345703126	-1297.921264648438	-329.3516235351563	795.7020263671877	-1281.620239257813	-434.5632934570314	642.4754638671876	-1137.279418945313	-405.2298889160157	577.5578002929689	-1162.728759765625	-406.1339721679689	639.9954833984376	-1082.41748046875	-92.45198059082033	943.5274658203127	-757.6300048828126	-198.552719116211	865.2086181640627	-584.2154541015626	-211.1576538085938	816.5316162109377	-591.4627685546876	-243.2665100097657	829.4154052734377	-541.7819824218751	-293.7764282226563	782.7213134765627	-513.4650268554689	-368.3716735839844	825.0745849609377	-529.2276611328126	-433.2357177734376	655.7730102539064	-702.2028198242189	-394.9124145507814	599.8733520507814	-663.4153442382814	-388.5889587402345	652.8192749023439	-756.3178710937501	-389.5376281738282	598.2459716796876	-1026.056274414063	-389.8624877929689	624.6187744140626	-790.130065917969	-498.9585876464845	731.6889038085939	-916.2083740234377	-524.6665039062501	709.9064331054689	-941.5972900390627	-524.2909545898439	713.0599365234376	-885.8186645507815	-371.1564636230469	517.4974975585939	-1135.726684570313	-288.4899902343751	509.5460815429689	-1148.248413085938	-267.8966674804688	546.6893920898439	-1121.579345703125	-256.1958007812501	461.1195373535157	-1159.563232421875	-177.3585815429688	406.5492248535157	-1159.78466796875	-133.7369384765625	396.3298339843751	-1034.205810546875	-145.0424957275391	281.6045532226563	-1116.833374023438	-220.0928802490235	268.7315063476563	-1163.22265625	-189.1693267822266	248.5268859863282	-1140.943603515625	-229.3456115722657	185.8223876953125	-1108.469116210938	-367.4257202148438	91.79660034179689	-1117.574340820313	-325.4382934570313	98.03093719482425	-1036.166748046875	-421.1593017578126	49.62646102905275	-1064.3623046875	-209.0870819091797	52.19869232177736	-1082.371826171875	-216.6512298583985	58.14619827270509	-1130.148315429688	-263.4173583984376	42.00681304931641	-1176.446166992188	-413.7253417968751	534.8207397460939	-695.2503051757814	-348.6599731445313	544.3975219726564	-692.5630493164064	-338.1648864746094	571.8325805664064	-711.5912475585939	-291.2793579101563	485.3464660644532	-678.8228149414064	-177.6530303955078	406.6130371093751	-689.0369873046876	-141.6334228515625	401.4757385253907	-809.1795654296877	-165.6286315917969	267.5512084960938	-755.6486816406251	-251.4104003906251	222.8838653564454	-702.0268554687501	-221.2024688720704	205.2460327148438	-733.5723876953126	-247.9994354248047	170.0960235595703	-774.864685058594	-366.7117919921876	90.40175628662111	-741.8187866210939	-323.9125061035157	103.8470611572266	-821.8099365234377	-419.148895263672	51.12940216064455	-799.5438232421877	-209.7651519775391	58.17857742309572	-766.4476928710939	-219.227035522461	58.30877685546876	-725.5889282226564	-261.6898498535157	35.0764503479004	-679.3472290039064	
922	4.605	53.47743606567384	1177.097412109375	-890.849548339844	-111.2904357910157	1089.98388671875	-969.1395263671877	-68.01944732666017	1107.200317382813	-813.5518188476565	-179.4115447998047	1026.202392578125	-914.6057128906252	-411.3937988281251	815.435729980469	-916.6096191406252	-89.33255767822267	893.370056152344	-911.121520996094	-72.13868713378908	946.0085449218752	-1060.393676757813	-164.7120666503907	838.8328247070315	-1240.549560546875	-177.5314331054688	795.694274902344	-1219.3955078125	-205.1398620605469	790.5812988281252	-1273.567749023438	-264.5682373046876	732.7797241210939	-1297.983276367188	-329.0118713378907	796.097351074219	-1281.74169921875	-434.6135864257814	643.4041748046876	-1137.15625	-405.3275756835939	578.2551269531251	-1162.574584960938	-406.0245056152345	640.7072753906251	-1082.362548828125	-92.20412445068361	943.8875122070315	-757.7507934570314	-198.3772125244141	865.6128540039065	-584.2573242187501	-211.1150665283204	816.916687011719	-591.5942993164064	-243.165267944336	829.7728271484377	-541.9073486328126	-293.7271423339844	783.319519042969	-513.4595336914064	-368.2576293945313	825.767761230469	-529.1581420898439	-433.4399414062501	656.6457519531251	-702.1356201171876	-395.1259155273439	600.6674804687501	-663.5342407226564	-388.6965332031251	653.6076049804689	-756.1940307617189	-389.6902770996095	599.2871704101564	-1025.982177734375	-389.9622802734376	625.6437377929689	-790.0403442382815	-499.1924743652345	732.7746582031251	-916.2092285156252	-524.7449951171876	711.1530151367189	-941.6137695312502	-524.3117675781251	714.2725219726564	-885.8494873046877	-370.9247741699219	518.1437988281251	-1135.490234375	-288.4402465820313	509.9478454589845	-1147.888793945313	-267.6503906250001	547.0178222656251	-1121.355590820313	-256.3627319335938	461.5924072265626	-1159.31201171875	-177.5443267822266	406.6910705566407	-1159.491577148438	-134.1241607666016	396.399871826172	-1034.0390625	-145.2972412109375	281.7637634277344	-1116.761108398438	-220.1844940185547	268.7825317382813	-1163.078735351563	-189.3692169189453	248.384506225586	-1140.825805664063	-229.5106811523438	185.8890075683594	-1108.39501953125	-367.5162658691407	91.72706604003908	-1117.491088867188	-325.5110778808594	97.99241638183597	-1036.109497070313	-421.1749877929689	49.55625534057619	-1064.33642578125	-209.1983795166016	52.21837615966798	-1082.318725585938	-216.7402648925782	58.19589614868165	-1130.11962890625	-263.3905944824219	42.02769088745118	-1176.436767578125	-413.7400817871095	535.5938110351564	-695.2556152343751	-348.7803039550782	545.0402221679689	-692.7222290039064	-338.3031005859376	572.4871826171876	-711.6425781250001	-291.7423706054688	485.5022277832032	-679.1942749023439	-178.1417541503907	406.7473754882814	-689.2946777343751	-141.6847381591797	401.6417541503907	-809.600036621094	-165.8528594970703	267.7147216796876	-755.8902587890626	-251.6390686035157	222.9293518066407	-702.2071533203126	-221.2987060546876	205.4710845947266	-733.6470336914064	-247.547592163086	170.1183166503907	-774.5526123046877	-366.7801208496094	90.28540802001955	-741.8453369140626	-323.9317016601563	103.7763290405274	-821.901794433594	-419.2435302734376	51.05258178710939	-799.507995605469	-209.8014526367188	58.20822906494142	-766.4849853515626	-219.2234497070313	58.42038345336915	-725.5705566406251	-261.7216186523438	35.07448196411134	-679.3556518554689	
